<svg width="225" height="224" viewBox="0 0 225 224" fill="none" xmlns="http://www.w3.org/2000/svg">
<g clip-path="url(#clip0_3853_60485)">
<path fill-rule="evenodd" clip-rule="evenodd" d="M20.5247 182.788V196.368H6.75V196.757H20.5247V210.337H6.75V210.725H20.5247V224.5H20.9128V210.725H34.4935V224.5H34.8815V210.725H48.4622V224.5H48.8503V210.725H62.431V224.5H62.819V210.725H76.3997V224.5H76.7878V210.725H90.3685V224.5H90.7565V210.725H104.337V224.5H104.725V210.725H118.306V224.5H118.694V210.725H132.275V224.5H132.663V210.725H146.243V224.5H146.632V210.725H160.212V224.5H160.6V210.725H174.181V224.5H174.569V210.725H188.15V224.5H188.538V210.725H202.118V224.5H202.507V210.725H216.087V224.5H216.475V210.725H230.25V210.337H216.475V196.757H230.25V196.368H216.475V182.788H230.25V182.4H216.475V168.819H230.25V168.431H216.475V154.85H230.25V154.462H216.475V140.882H230.25V140.493H216.475V126.913H230.25V126.525H216.475V112.944H230.25V112.556H216.475V98.9753H230.25V98.5872H216.475V85.0065H230.25V84.6185H216.475V71.0378H230.25V70.6497H216.475V57.069H230.25V56.681H216.475V43.1003H230.25V42.7122H216.475V29.1315H230.25V28.7435H216.475V15.1628H230.25V14.7747H216.475V1H216.087V14.7747H202.507V1H202.118V14.7747H188.538V1H188.15V14.7747H174.569V1H174.181V14.7747H160.6V1H160.212V14.7747H146.632V1H146.243V14.7747H132.663V1H132.275V14.7747H118.694V1H118.306V14.7747H104.725V1H104.337V14.7747H90.7565V1H90.3685V14.7747H76.7878V1H76.3997V14.7747H62.819V1H62.431V14.7747H48.8503V1H48.4622V14.7747H34.8815V1H34.4935V14.7747H20.9128V1H20.5247V14.7747H6.75V15.1628H20.5247V28.7435H6.75V29.1315H20.5247V42.7122H6.75V43.1003H20.5247V56.681H6.75V57.069H20.5247V70.6497H6.75V71.0378H20.5247V84.6185H6.75V85.0065H20.5247V98.5872H6.75V98.9753H20.5247V112.556H6.75V112.944H20.5247V126.525H6.75V126.913H20.5247V140.493H6.75V140.882H20.5247V154.462H6.75V154.85H20.5247V168.431H6.75V168.819H20.5247V182.4H6.75V182.788H20.5247ZM216.087 210.337V196.757H202.507V210.337H216.087ZM202.118 210.337V196.757H188.538V210.337H202.118ZM188.15 210.337V196.757H174.569V210.337H188.15ZM174.181 210.337V196.757H160.6V210.337H174.181ZM160.212 210.337V196.757H146.632V210.337H160.212ZM146.243 210.337V196.757H132.663V210.337H146.243ZM132.275 210.337V196.757H118.694V210.337H132.275ZM118.306 210.337V196.757H104.725V210.337H118.306ZM104.337 210.337V196.757H90.7565V210.337H104.337ZM90.3685 210.337V196.757H76.7878V210.337H90.3685ZM76.3997 210.337V196.757H62.819V210.337H76.3997ZM62.431 210.337V196.757H48.8503V210.337H62.431ZM48.4622 210.337V196.757H34.8815V210.337H48.4622ZM34.4935 210.337V196.757H20.9128V210.337H34.4935ZM34.4935 196.368H20.9128V182.788H34.4935V196.368ZM48.4622 196.368H34.8815V182.788H48.4622V196.368ZM62.431 196.368H48.8503V182.788H62.431V196.368ZM76.3997 196.368H62.819V182.788H76.3997V196.368ZM90.3685 196.368H76.7878V182.788H90.3685V196.368ZM104.337 196.368H90.7565V182.788H104.337V196.368ZM118.306 196.368H104.725V182.788H118.306V196.368ZM132.275 196.368H118.694V182.788H132.275V196.368ZM146.243 196.368H132.663V182.788H146.243V196.368ZM160.212 196.368H146.632V182.788H160.212V196.368ZM174.181 196.368H160.6V182.788H174.181V196.368ZM188.15 196.368H174.569V182.788H188.15V196.368ZM202.118 196.368H188.538V182.788H202.118V196.368ZM216.087 196.368H202.507V182.788H216.087V196.368ZM216.087 15.1628H202.507V28.7435H216.087V15.1628ZM216.087 29.1315H202.507V42.7122H216.087V29.1315ZM216.087 43.1003H202.507V56.681H216.087V43.1003ZM216.087 57.069H202.507V70.6497H216.087V57.069ZM216.087 71.0378H202.507V84.6185H216.087V71.0378ZM216.087 85.0065H202.507V98.5872H216.087V85.0065ZM216.087 98.9753H202.507V112.556H216.087V98.9753ZM216.087 112.944H202.507V126.525H216.087V112.944ZM216.087 126.913H202.507V140.493H216.087V126.913ZM216.087 140.882H202.507V154.462H216.087V140.882ZM216.087 154.85H202.507V168.431H216.087V154.85ZM216.087 168.819H202.507V182.4H216.087V168.819ZM202.118 168.819V182.4H188.538V168.819H202.118ZM202.118 154.85V168.431H188.538V154.85H202.118ZM202.118 140.882V154.462H188.538V140.882H202.118ZM202.118 126.913V140.493H188.538V126.913H202.118ZM202.118 112.944V126.525H188.538V112.944H202.118ZM202.118 98.9753V112.556H188.538V98.9753H202.118ZM202.118 85.0065V98.5872H188.538V85.0065H202.118ZM202.118 71.0378V84.6185H188.538V71.0378H202.118ZM202.118 57.069V70.6497H188.538V57.069H202.118ZM202.118 43.1003V56.681H188.538V43.1003H202.118ZM202.118 29.1315V42.7122H188.538V29.1315H202.118ZM202.118 15.1628V28.7435H188.538V15.1628H202.118ZM20.9128 182.4H34.4935V168.819H20.9128V182.4ZM34.8815 182.4H48.4622V168.819H34.8815V182.4ZM48.8503 182.4H62.431V168.819H48.8503V182.4ZM62.819 182.4H76.3997V168.819H62.819V182.4ZM76.7878 182.4H90.3685V168.819H76.7878V182.4ZM90.7565 182.4H104.337V168.819H90.7565V182.4ZM104.725 182.4H118.306V168.819H104.725V182.4ZM118.694 182.4H132.275V168.819H118.694V182.4ZM132.663 182.4H146.243V168.819H132.663V182.4ZM146.632 182.4H160.212V168.819H146.632V182.4ZM160.6 182.4H174.181V168.819H160.6V182.4ZM174.569 182.4H188.15V168.819H174.569V182.4ZM188.15 154.85V168.431H174.569V154.85H188.15ZM188.15 140.882V154.462H174.569V140.882H188.15ZM188.15 126.913V140.493H174.569V126.913H188.15ZM188.15 112.944V126.525H174.569V112.944H188.15ZM188.15 98.9753V112.556H174.569V98.9753H188.15ZM188.15 85.0065V98.5872H174.569V85.0065H188.15ZM188.15 71.0378V84.6185H174.569V71.0378H188.15ZM188.15 57.069V70.6497H174.569V57.069H188.15ZM188.15 43.1003V56.681H174.569V43.1003H188.15ZM188.15 29.1315V42.7122H174.569V29.1315H188.15ZM188.15 15.1628V28.7435H174.569V15.1628H188.15ZM20.9128 168.431H34.4935V154.85H20.9128V168.431ZM34.8815 168.431H48.4622V154.85H34.8815V168.431ZM48.8503 168.431H62.431V154.85H48.8503V168.431ZM62.819 168.431H76.3997V154.85H62.819V168.431ZM76.7878 168.431H90.3685V154.85H76.7878V168.431ZM90.7565 168.431H104.337V154.85H90.7565V168.431ZM104.725 168.431H118.306V154.85H104.725V168.431ZM118.694 168.431H132.275V154.85H118.694V168.431ZM132.663 168.431H146.243V154.85H132.663V168.431ZM146.632 168.431H160.212V154.85H146.632V168.431ZM160.6 168.431H174.181V154.85H160.6V168.431ZM174.181 140.882V154.462H160.6V140.882H174.181ZM174.181 126.913V140.493H160.6V126.913H174.181ZM174.181 112.944V126.525H160.6V112.944H174.181ZM174.181 98.9753V112.556H160.6V98.9753H174.181ZM174.181 85.0065V98.5872H160.6V85.0065H174.181ZM174.181 71.0378V84.6185H160.6V71.0378H174.181ZM174.181 57.069V70.6497H160.6V57.069H174.181ZM174.181 43.1003V56.681H160.6V43.1003H174.181ZM174.181 29.1315V42.7122H160.6V29.1315H174.181ZM174.181 15.1628V28.7435H160.6V15.1628H174.181ZM20.9128 154.462H34.4935V140.882H20.9128V154.462ZM34.8815 154.462H48.4622V140.882H34.8815V154.462ZM48.8503 154.462H62.431V140.882H48.8503V154.462ZM62.819 154.462H76.3997V140.882H62.819V154.462ZM76.7878 154.462H90.3685V140.882H76.7878V154.462ZM90.7565 154.462H104.337V140.882H90.7565V154.462ZM104.725 154.462H118.306V140.882H104.725V154.462ZM118.694 154.462H132.275V140.882H118.694V154.462ZM132.663 154.462H146.243V140.882H132.663V154.462ZM146.632 154.462H160.212V140.882H146.632V154.462ZM160.212 126.913V140.493H146.632V126.913H160.212ZM160.212 112.944V126.525H146.632V112.944H160.212ZM160.212 98.9753V112.556H146.632V98.9753H160.212ZM160.212 85.0065V98.5872H146.632V85.0065H160.212ZM160.212 71.0378V84.6185H146.632V71.0378H160.212ZM160.212 57.069V70.6497H146.632V57.069H160.212ZM160.212 43.1003V56.681H146.632V43.1003H160.212ZM160.212 29.1315V42.7122H146.632V29.1315H160.212ZM160.212 15.1628V28.7435H146.632V15.1628H160.212ZM20.9128 140.493H34.4935V126.913H20.9128V140.493ZM34.8815 140.493H48.4622V126.913H34.8815V140.493ZM48.8503 140.493H62.431V126.913H48.8503V140.493ZM62.819 140.493H76.3997V126.913H62.819V140.493ZM76.7878 140.493H90.3685V126.913H76.7878V140.493ZM90.7565 140.493H104.337V126.913H90.7565V140.493ZM104.725 140.493H118.306V126.913H104.725V140.493ZM118.694 140.493H132.275V126.913H118.694V140.493ZM132.663 140.493H146.243V126.913H132.663V140.493ZM146.243 112.944V126.525H132.663V112.944H146.243ZM146.243 98.9753V112.556H132.663V98.9753H146.243ZM146.243 85.0065V98.5872H132.663V85.0065H146.243ZM146.243 71.0378V84.6185H132.663V71.0378H146.243ZM146.243 57.069V70.6497H132.663V57.069H146.243ZM146.243 43.1003V56.681H132.663V43.1003H146.243ZM146.243 29.1315V42.7122H132.663V29.1315H146.243ZM146.243 15.1628V28.7435H132.663V15.1628H146.243ZM20.9128 126.525H34.4935V112.944H20.9128V126.525ZM34.8815 126.525H48.4622V112.944H34.8815V126.525ZM48.8503 126.525H62.431V112.944H48.8503V126.525ZM62.819 126.525H76.3997V112.944H62.819V126.525ZM76.7878 126.525H90.3685V112.944H76.7878V126.525ZM90.7565 126.525H104.337V112.944H90.7565V126.525ZM104.725 126.525H118.306V112.944H104.725V126.525ZM118.694 126.525H132.275V112.944H118.694V126.525ZM132.275 98.9753V112.556H118.694V98.9753H132.275ZM132.275 85.0065V98.5872H118.694V85.0065H132.275ZM132.275 71.0378V84.6185H118.694V71.0378H132.275ZM132.275 57.069V70.6497H118.694V57.069H132.275ZM132.275 43.1003V56.681H118.694V43.1003H132.275ZM132.275 29.1315V42.7122H118.694V29.1315H132.275ZM132.275 15.1628V28.7435H118.694V15.1628H132.275ZM20.9128 112.556H34.4935V98.9753H20.9128V112.556ZM34.8815 112.556H48.4622V98.9753H34.8815V112.556ZM48.8503 112.556H62.431V98.9753H48.8503V112.556ZM62.819 112.556H76.3997V98.9753H62.819V112.556ZM76.7878 112.556H90.3685V98.9753H76.7878V112.556ZM90.7565 112.556H104.337V98.9753H90.7565V112.556ZM104.725 112.556H118.306V98.9753H104.725V112.556ZM118.306 85.0065V98.5872H104.725V85.0065H118.306ZM118.306 71.0378V84.6185H104.725V71.0378H118.306ZM118.306 57.069V70.6497H104.725V57.069H118.306ZM118.306 43.1003V56.681H104.725V43.1003H118.306ZM118.306 29.1315V42.7122H104.725V29.1315H118.306ZM118.306 15.1628V28.7435H104.725V15.1628H118.306ZM20.9128 98.5872H34.4935V85.0065H20.9128V98.5872ZM34.8815 98.5872H48.4622V85.0065H34.8815V98.5872ZM48.8503 98.5872H62.431V85.0065H48.8503V98.5872ZM62.819 98.5872H76.3997V85.0065H62.819V98.5872ZM76.7878 98.5872H90.3685V85.0065H76.7878V98.5872ZM90.7565 98.5872H104.337V85.0065H90.7565V98.5872ZM104.337 71.0378V84.6185H90.7565V71.0378H104.337ZM104.337 57.069V70.6497H90.7565V57.069H104.337ZM104.337 43.1003V56.681H90.7565V43.1003H104.337ZM104.337 29.1315V42.7122H90.7565V29.1315H104.337ZM104.337 15.1628V28.7435H90.7565V15.1628H104.337ZM20.9128 84.6185H34.4935V71.0378H20.9128V84.6185ZM34.8815 84.6185H48.4622V71.0378H34.8815V84.6185ZM48.8503 84.6185H62.431V71.0378H48.8503V84.6185ZM62.819 84.6185H76.3997V71.0378H62.819V84.6185ZM76.7878 84.6185H90.3685V71.0378H76.7878V84.6185ZM90.3685 57.069V70.6497H76.7878V57.069H90.3685ZM90.3685 43.1003V56.681H76.7878V43.1003H90.3685ZM90.3685 29.1315V42.7122H76.7878V29.1315H90.3685ZM90.3685 15.1628V28.7435H76.7878V15.1628H90.3685ZM20.9128 70.6497H34.4935V57.069H20.9128V70.6497ZM34.8815 70.6497H48.4622V57.069H34.8815V70.6497ZM48.8503 70.6497H62.431V57.069H48.8503V70.6497ZM62.819 70.6497H76.3997V57.069H62.819V70.6497ZM76.3997 43.1003V56.681H62.819V43.1003H76.3997ZM76.3997 29.1315V42.7122H62.819V29.1315H76.3997ZM76.3997 15.1628V28.7435H62.819V15.1628H76.3997ZM20.9128 56.681H34.4935V43.1003H20.9128V56.681ZM34.8815 56.681H48.4622V43.1003L34.8815 43.1003V56.681ZM48.8503 56.681H62.431V43.1003H48.8503V56.681ZM62.431 29.1315V42.7122H48.8503V29.1315H62.431ZM62.431 15.1628V28.7435H48.8503V15.1628H62.431ZM20.9128 42.7122H34.4935V29.1315H20.9128V42.7122ZM34.8815 42.7122L48.4622 42.7122V29.1315H34.8815V42.7122ZM48.4622 15.1628V28.7435H34.8815V15.1628H48.4622ZM20.9128 28.7435H34.4935V15.1628H20.9128V28.7435Z" fill="url(#paint0_radial_3853_60485)"/>
<g opacity="0.6">
<g filter="url(#filter0_f_3853_60485)">
<circle cx="118.5" cy="196.562" r="1.55208" fill="#640DFB"/>
</g>
<g filter="url(#filter1_f_3853_60485)">
<circle cx="118.5" cy="196.563" r="0.776042" fill="#640DFB"/>
</g>
</g>
<g filter="url(#filter2_f_3853_60485)">
<circle cx="132.469" cy="42.9062" r="1.55208" fill="#640DFB"/>
</g>
<g filter="url(#filter3_f_3853_60485)">
<circle cx="132.469" cy="42.9063" r="0.776042" fill="#640DFB"/>
</g>
<g filter="url(#filter4_f_3853_60485)">
<circle cx="48.6562" cy="154.656" r="1.55208" fill="#640DFB"/>
</g>
<g filter="url(#filter5_f_3853_60485)">
<circle cx="48.6563" cy="154.656" r="0.776042" fill="#640DFB"/>
</g>
<g opacity="0.5" filter="url(#filter6_f_3853_60485)">
<circle cx="74.2656" cy="77.8282" r="24.0573" fill="#CB8F8F"/>
</g>
<g filter="url(#filter7_f_3853_60485)">
<circle cx="112.292" cy="162.417" r="40.3542" fill="#240E74"/>
</g>
<g filter="url(#filter8_f_3853_60485)">
<circle cx="112.292" cy="73.9479" r="40.3542" fill="#55108B"/>
</g>
<g opacity="0.7" filter="url(#filter9_i_3853_60485)">
<circle cx="112.292" cy="115.854" r="62.0833" fill="#C4C4C4" fill-opacity="0.01"/>
</g>
<g filter="url(#filter10_bi_3853_60485)">
<circle cx="112.292" cy="115.854" r="62.0833" fill="#C4C4C4" fill-opacity="0.01"/>
</g>
<circle cx="112.292" cy="115.854" r="61.5833" stroke="url(#paint1_linear_3853_60485)"/>
<g filter="url(#filter11_f_3853_60485)">
<circle cx="112.292" cy="115.854" r="59.0833" stroke="url(#paint2_linear_3853_60485)" stroke-width="6"/>
<circle cx="112.292" cy="115.854" r="59.0833" stroke="black" stroke-opacity="0.2" stroke-width="6"/>
</g>
<g opacity="0.3" filter="url(#filter12_i_3853_60485)">
<circle cx="112.292" cy="115.854" r="62.0833" fill="#C4C4C4" fill-opacity="0.01"/>
</g>
<circle cx="112.292" cy="115.854" r="61.5833" stroke="url(#paint3_linear_3853_60485)"/>
<g opacity="0.7" filter="url(#filter13_f_3853_60485)">
<ellipse cx="91.1587" cy="88.5129" rx="8.52555" ry="14.2674" transform="rotate(45 91.1587 88.5129)" fill="#FF9BC5"/>
</g>
<g opacity="0.35" filter="url(#filter14_f_3853_60485)">
<ellipse cx="144.009" cy="152.227" rx="8.23856" ry="16.8611" transform="rotate(45 144.009 152.227)" fill="#DF9BFF"/>
</g>
<g filter="url(#filter15_f_3853_60485)">
<path d="M96.7708 56.5286C76.6952 61.7663 60.6273 76.9246 54.1176 96.4531H54.0885V94.2017C61.1101 75.3348 77.0431 60.8043 96.7708 55.7267V56.5286Z" fill="#DFB9D7"/>
</g>
<g filter="url(#filter16_f_3853_60485)">
<ellipse cx="71.2272" cy="70.114" rx="9.3125" ry="2.32812" transform="rotate(-40.3806 71.2272 70.114)" fill="#D4AEBD"/>
</g>
<g opacity="0.7" filter="url(#filter17_f_3853_60485)">
<ellipse cx="71.2272" cy="70.114" rx="20.9931" ry="5.24827" transform="rotate(-40.3806 71.2272 70.114)" fill="#D4AEBD"/>
</g>
<g filter="url(#filter18_f_3853_60485)">
<ellipse cx="152.712" cy="162.463" rx="9.3125" ry="2.32812" transform="rotate(-40.3806 152.712 162.463)" fill="#A08FF4"/>
</g>
<g filter="url(#filter19_f_3853_60485)">
<ellipse cx="71.2271" cy="70.1141" rx="7.31143" ry="3.52984" transform="rotate(-40.3806 71.2271 70.1141)" fill="white"/>
</g>
<g filter="url(#filter20_f_3853_60485)">
<circle cx="188.344" cy="112.75" r="1.55208" fill="#640DFB"/>
</g>
<g filter="url(#filter21_f_3853_60485)">
<circle cx="188.344" cy="112.75" r="0.776042" fill="#640DFB"/>
</g>
<g style="mix-blend-mode:screen">
<circle cx="112.292" cy="97.2292" r="21.2292" stroke="#8C4D9D"/>
<circle cx="112.292" cy="115.078" r="21.2292" stroke="#8C4D9D"/>
<circle cx="112.292" cy="132.927" r="21.2292" stroke="#8C4D9D"/>
</g>
<path d="M132.469 28.9375V56.875" stroke="url(#paint4_radial_3853_60485)" stroke-width="0.5"/>
<path d="M146.438 42.9062L118.5 42.9062" stroke="url(#paint5_radial_3853_60485)" stroke-width="0.5"/>
<path d="M48.6562 140.688V168.625" stroke="url(#paint6_radial_3853_60485)" stroke-width="0.5"/>
<path d="M62.625 154.656L34.6875 154.656" stroke="url(#paint7_radial_3853_60485)" stroke-width="0.5"/>
</g>
<defs>
<filter id="filter0_f_3853_60485" x="110.948" y="189.01" width="15.1042" height="15.1041" filterUnits="userSpaceOnUse" color-interpolation-filters="sRGB">
<feFlood flood-opacity="0" result="BackgroundImageFix"/>
<feBlend mode="normal" in="SourceGraphic" in2="BackgroundImageFix" result="shape"/>
<feGaussianBlur stdDeviation="3" result="effect1_foregroundBlur_3853_60485"/>
</filter>
<filter id="filter1_f_3853_60485" x="115.724" y="193.786" width="5.55209" height="5.55212" filterUnits="userSpaceOnUse" color-interpolation-filters="sRGB">
<feFlood flood-opacity="0" result="BackgroundImageFix"/>
<feBlend mode="normal" in="SourceGraphic" in2="BackgroundImageFix" result="shape"/>
<feGaussianBlur stdDeviation="1" result="effect1_foregroundBlur_3853_60485"/>
</filter>
<filter id="filter2_f_3853_60485" x="124.917" y="35.3541" width="15.1042" height="15.1041" filterUnits="userSpaceOnUse" color-interpolation-filters="sRGB">
<feFlood flood-opacity="0" result="BackgroundImageFix"/>
<feBlend mode="normal" in="SourceGraphic" in2="BackgroundImageFix" result="shape"/>
<feGaussianBlur stdDeviation="3" result="effect1_foregroundBlur_3853_60485"/>
</filter>
<filter id="filter3_f_3853_60485" x="129.693" y="40.1302" width="5.55209" height="5.55212" filterUnits="userSpaceOnUse" color-interpolation-filters="sRGB">
<feFlood flood-opacity="0" result="BackgroundImageFix"/>
<feBlend mode="normal" in="SourceGraphic" in2="BackgroundImageFix" result="shape"/>
<feGaussianBlur stdDeviation="1" result="effect1_foregroundBlur_3853_60485"/>
</filter>
<filter id="filter4_f_3853_60485" x="41.1042" y="147.104" width="15.1042" height="15.1041" filterUnits="userSpaceOnUse" color-interpolation-filters="sRGB">
<feFlood flood-opacity="0" result="BackgroundImageFix"/>
<feBlend mode="normal" in="SourceGraphic" in2="BackgroundImageFix" result="shape"/>
<feGaussianBlur stdDeviation="3" result="effect1_foregroundBlur_3853_60485"/>
</filter>
<filter id="filter5_f_3853_60485" x="45.8802" y="151.88" width="5.55209" height="5.55212" filterUnits="userSpaceOnUse" color-interpolation-filters="sRGB">
<feFlood flood-opacity="0" result="BackgroundImageFix"/>
<feBlend mode="normal" in="SourceGraphic" in2="BackgroundImageFix" result="shape"/>
<feGaussianBlur stdDeviation="1" result="effect1_foregroundBlur_3853_60485"/>
</filter>
<filter id="filter6_f_3853_60485" x="-29.7917" y="-26.2291" width="208.115" height="208.115" filterUnits="userSpaceOnUse" color-interpolation-filters="sRGB">
<feFlood flood-opacity="0" result="BackgroundImageFix"/>
<feBlend mode="normal" in="SourceGraphic" in2="BackgroundImageFix" result="shape"/>
<feGaussianBlur stdDeviation="40" result="effect1_foregroundBlur_3853_60485"/>
</filter>
<filter id="filter7_f_3853_60485" x="3.9375" y="54.0625" width="216.708" height="216.708" filterUnits="userSpaceOnUse" color-interpolation-filters="sRGB">
<feFlood flood-opacity="0" result="BackgroundImageFix"/>
<feBlend mode="normal" in="SourceGraphic" in2="BackgroundImageFix" result="shape"/>
<feGaussianBlur stdDeviation="34" result="effect1_foregroundBlur_3853_60485"/>
</filter>
<filter id="filter8_f_3853_60485" x="9.9375" y="-28.4062" width="204.708" height="204.708" filterUnits="userSpaceOnUse" color-interpolation-filters="sRGB">
<feFlood flood-opacity="0" result="BackgroundImageFix"/>
<feBlend mode="normal" in="SourceGraphic" in2="BackgroundImageFix" result="shape"/>
<feGaussianBlur stdDeviation="31" result="effect1_foregroundBlur_3853_60485"/>
</filter>
<filter id="filter9_i_3853_60485" x="26.2083" y="29.7709" width="148.167" height="148.167" filterUnits="userSpaceOnUse" color-interpolation-filters="sRGB">
<feFlood flood-opacity="0" result="BackgroundImageFix"/>
<feBlend mode="normal" in="SourceGraphic" in2="BackgroundImageFix" result="shape"/>
<feColorMatrix in="SourceAlpha" type="matrix" values="0 0 0 0 0 0 0 0 0 0 0 0 0 0 0 0 0 0 127 0" result="hardAlpha"/>
<feOffset dx="-24" dy="-24"/>
<feGaussianBlur stdDeviation="27"/>
<feComposite in2="hardAlpha" operator="arithmetic" k2="-1" k3="1"/>
<feColorMatrix type="matrix" values="0 0 0 0 0.3155 0 0 0 0 0.075 0 0 0 0 1 0 0 0 1 0"/>
<feBlend mode="normal" in2="shape" result="effect1_innerShadow_3853_60485"/>
</filter>
<filter id="filter10_bi_3853_60485" x="30.2083" y="33.7709" width="164.167" height="164.167" filterUnits="userSpaceOnUse" color-interpolation-filters="sRGB">
<feFlood flood-opacity="0" result="BackgroundImageFix"/>
<feGaussianBlur in="BackgroundImageFix" stdDeviation="10"/>
<feComposite in2="SourceAlpha" operator="in" result="effect1_backgroundBlur_3853_60485"/>
<feBlend mode="normal" in="SourceGraphic" in2="effect1_backgroundBlur_3853_60485" result="shape"/>
<feColorMatrix in="SourceAlpha" type="matrix" values="0 0 0 0 0 0 0 0 0 0 0 0 0 0 0 0 0 0 127 0" result="hardAlpha"/>
<feOffset dx="-4" dy="-4"/>
<feGaussianBlur stdDeviation="8"/>
<feComposite in2="hardAlpha" operator="arithmetic" k2="-1" k3="1"/>
<feColorMatrix type="matrix" values="0 0 0 0 0.751506 0 0 0 0 0.608333 0 0 0 0 1 0 0 0 1 0"/>
<feBlend mode="normal" in2="shape" result="effect2_innerShadow_3853_60485"/>
</filter>
<filter id="filter11_f_3853_60485" x="34.2083" y="37.7709" width="156.167" height="156.167" filterUnits="userSpaceOnUse" color-interpolation-filters="sRGB">
<feFlood flood-opacity="0" result="BackgroundImageFix"/>
<feBlend mode="normal" in="SourceGraphic" in2="BackgroundImageFix" result="shape"/>
<feGaussianBlur stdDeviation="8" result="effect1_foregroundBlur_3853_60485"/>
</filter>
<filter id="filter12_i_3853_60485" x="50.2083" y="53.7709" width="127.167" height="127.167" filterUnits="userSpaceOnUse" color-interpolation-filters="sRGB">
<feFlood flood-opacity="0" result="BackgroundImageFix"/>
<feBlend mode="normal" in="SourceGraphic" in2="BackgroundImageFix" result="shape"/>
<feColorMatrix in="SourceAlpha" type="matrix" values="0 0 0 0 0 0 0 0 0 0 0 0 0 0 0 0 0 0 127 0" result="hardAlpha"/>
<feOffset dx="3" dy="3"/>
<feGaussianBlur stdDeviation="2"/>
<feComposite in2="hardAlpha" operator="arithmetic" k2="-1" k3="1"/>
<feColorMatrix type="matrix" values="0 0 0 0 1 0 0 0 0 1 0 0 0 0 1 0 0 0 1 0"/>
<feBlend mode="normal" in2="shape" result="effect1_innerShadow_3853_60485"/>
</filter>
<filter id="filter13_f_3853_60485" x="55.4044" y="52.7585" width="71.5086" height="71.5087" filterUnits="userSpaceOnUse" color-interpolation-filters="sRGB">
<feFlood flood-opacity="0" result="BackgroundImageFix"/>
<feBlend mode="normal" in="SourceGraphic" in2="BackgroundImageFix" result="shape"/>
<feGaussianBlur stdDeviation="12" result="effect1_foregroundBlur_3853_60485"/>
</filter>
<filter id="filter14_f_3853_60485" x="106.736" y="114.955" width="74.5454" height="74.5454" filterUnits="userSpaceOnUse" color-interpolation-filters="sRGB">
<feFlood flood-opacity="0" result="BackgroundImageFix"/>
<feBlend mode="normal" in="SourceGraphic" in2="BackgroundImageFix" result="shape"/>
<feGaussianBlur stdDeviation="12" result="effect1_foregroundBlur_3853_60485"/>
</filter>
<filter id="filter15_f_3853_60485" x="42.0885" y="43.7267" width="66.6823" height="64.7264" filterUnits="userSpaceOnUse" color-interpolation-filters="sRGB">
<feFlood flood-opacity="0" result="BackgroundImageFix"/>
<feBlend mode="normal" in="SourceGraphic" in2="BackgroundImageFix" result="shape"/>
<feGaussianBlur stdDeviation="6" result="effect1_foregroundBlur_3853_60485"/>
</filter>
<filter id="filter16_f_3853_60485" x="42.9732" y="42.824" width="56.5079" height="54.5802" filterUnits="userSpaceOnUse" color-interpolation-filters="sRGB">
<feFlood flood-opacity="0" result="BackgroundImageFix"/>
<feBlend mode="normal" in="SourceGraphic" in2="BackgroundImageFix" result="shape"/>
<feGaussianBlur stdDeviation="10.5" result="effect1_foregroundBlur_3853_60485"/>
</filter>
<filter id="filter17_f_3853_60485" x="22.8747" y="23.9342" width="96.705" height="92.3595" filterUnits="userSpaceOnUse" color-interpolation-filters="sRGB">
<feFlood flood-opacity="0" result="BackgroundImageFix"/>
<feBlend mode="normal" in="SourceGraphic" in2="BackgroundImageFix" result="shape"/>
<feGaussianBlur stdDeviation="16" result="effect1_foregroundBlur_3853_60485"/>
</filter>
<filter id="filter18_f_3853_60485" x="130.458" y="141.173" width="44.5079" height="42.5802" filterUnits="userSpaceOnUse" color-interpolation-filters="sRGB">
<feFlood flood-opacity="0" result="BackgroundImageFix"/>
<feBlend mode="normal" in="SourceGraphic" in2="BackgroundImageFix" result="shape"/>
<feGaussianBlur stdDeviation="7.5" result="effect1_foregroundBlur_3853_60485"/>
</filter>
<filter id="filter19_f_3853_60485" x="49.2048" y="48.6664" width="44.0447" height="42.8954" filterUnits="userSpaceOnUse" color-interpolation-filters="sRGB">
<feFlood flood-opacity="0" result="BackgroundImageFix"/>
<feBlend mode="normal" in="SourceGraphic" in2="BackgroundImageFix" result="shape"/>
<feGaussianBlur stdDeviation="8" result="effect1_foregroundBlur_3853_60485"/>
</filter>
<filter id="filter20_f_3853_60485" x="180.792" y="105.198" width="15.1042" height="15.1041" filterUnits="userSpaceOnUse" color-interpolation-filters="sRGB">
<feFlood flood-opacity="0" result="BackgroundImageFix"/>
<feBlend mode="normal" in="SourceGraphic" in2="BackgroundImageFix" result="shape"/>
<feGaussianBlur stdDeviation="3" result="effect1_foregroundBlur_3853_60485"/>
</filter>
<filter id="filter21_f_3853_60485" x="185.568" y="109.974" width="5.55209" height="5.55212" filterUnits="userSpaceOnUse" color-interpolation-filters="sRGB">
<feFlood flood-opacity="0" result="BackgroundImageFix"/>
<feBlend mode="normal" in="SourceGraphic" in2="BackgroundImageFix" result="shape"/>
<feGaussianBlur stdDeviation="1" result="effect1_foregroundBlur_3853_60485"/>
</filter>
<radialGradient id="paint0_radial_3853_60485" cx="0" cy="0" r="1" gradientUnits="userSpaceOnUse" gradientTransform="translate(118.5 112.75) rotate(90) scale(111.75)">
<stop stop-color="#640DFB"/>
<stop offset="1" stop-color="#640DFB" stop-opacity="0"/>
</radialGradient>
<linearGradient id="paint1_linear_3853_60485" x1="50.2083" y1="53.7709" x2="174.375" y2="177.938" gradientUnits="userSpaceOnUse">
<stop stop-color="#640DFB"/>
<stop offset="0.755208" stop-color="#640DFB" stop-opacity="0.1"/>
</linearGradient>
<linearGradient id="paint2_linear_3853_60485" x1="67.5917" y1="71.1542" x2="156.992" y2="160.554" gradientUnits="userSpaceOnUse">
<stop stop-color="#FF9179"/>
<stop offset="0.255208" stop-color="#FF5CF0"/>
<stop offset="0.541667" stop-color="#8466FF"/>
<stop offset="1" stop-color="#002FA8"/>
</linearGradient>
<linearGradient id="paint3_linear_3853_60485" x1="50.2083" y1="53.7709" x2="174.375" y2="177.938" gradientUnits="userSpaceOnUse">
<stop stop-color="#F9E5B2"/>
<stop offset="1" stop-color="#640DFB" stop-opacity="0.1"/>
</linearGradient>
<radialGradient id="paint4_radial_3853_60485" cx="0" cy="0" r="1" gradientUnits="userSpaceOnUse" gradientTransform="translate(132.969 42.9063) rotate(90) scale(13.9688 18)">
<stop stop-color="#640DFB"/>
<stop offset="1" stop-color="#640DFB" stop-opacity="0"/>
</radialGradient>
<radialGradient id="paint5_radial_3853_60485" cx="0" cy="0" r="1" gradientUnits="userSpaceOnUse" gradientTransform="translate(132.469 43.4062) rotate(-180) scale(13.9688 18)">
<stop stop-color="#640DFB"/>
<stop offset="1" stop-color="#640DFB" stop-opacity="0"/>
</radialGradient>
<radialGradient id="paint6_radial_3853_60485" cx="0" cy="0" r="1" gradientUnits="userSpaceOnUse" gradientTransform="translate(49.1563 154.656) rotate(90) scale(13.9688 18)">
<stop stop-color="#640DFB"/>
<stop offset="1" stop-color="#640DFB" stop-opacity="0"/>
</radialGradient>
<radialGradient id="paint7_radial_3853_60485" cx="0" cy="0" r="1" gradientUnits="userSpaceOnUse" gradientTransform="translate(48.6562 155.156) rotate(-180) scale(13.9688 18)">
<stop stop-color="#640DFB"/>
<stop offset="1" stop-color="#640DFB" stop-opacity="0"/>
</radialGradient>
<clipPath id="clip0_3853_60485">
<rect width="223.5" height="223.5" fill="white" transform="translate(0.75)"/>
</clipPath>
</defs>
</svg>
